<mxfile host="Electron" modified="2023-06-15T15:26:05.150Z" agent="Mozilla/5.0 (Windows NT 10.0; Win64; x64) AppleWebKit/537.36 (KHTML, like Gecko) draw.io/21.4.0 Chrome/112.0.5615.204 Electron/24.5.1 Safari/537.36" etag="yNMsT356JRKOcW9OV-Mu" version="21.4.0" type="device">
  <diagram name="Page-1" id="oL0eZGH5eensEGQ6-rVe">
    <mxGraphModel dx="2058" dy="1188" grid="1" gridSize="10" guides="1" tooltips="1" connect="1" arrows="1" fold="1" page="1" pageScale="1" pageWidth="827" pageHeight="1169" math="0" shadow="0">
      <root>
        <mxCell id="0" />
        <mxCell id="1" parent="0" />
        <mxCell id="VjrMN6myHZ9YJszXmR57-49" style="edgeStyle=none;shape=connector;rounded=0;orthogonalLoop=1;jettySize=auto;html=1;exitX=1;exitY=0.75;exitDx=0;exitDy=0;entryX=1;entryY=0.25;entryDx=0;entryDy=0;labelBackgroundColor=default;strokeColor=#7EA6E0;strokeWidth=3;fontFamily=Helvetica;fontSize=11;fontColor=default;endArrow=none;endFill=0;" parent="1" source="VjrMN6myHZ9YJszXmR57-50" target="VjrMN6myHZ9YJszXmR57-55" edge="1">
          <mxGeometry relative="1" as="geometry" />
        </mxCell>
        <mxCell id="VjrMN6myHZ9YJszXmR57-50" value="" style="rounded=0;whiteSpace=wrap;html=1;fillColor=#7EA6E0;strokeColor=#7EA6E0;movable=1;resizable=1;rotatable=1;deletable=1;editable=1;locked=0;connectable=1;rotation=60;" parent="1" vertex="1">
          <mxGeometry x="521" y="634" width="60" height="28.5" as="geometry" />
        </mxCell>
        <mxCell id="VjrMN6myHZ9YJszXmR57-51" style="edgeStyle=none;shape=connector;rounded=0;orthogonalLoop=1;jettySize=auto;html=1;exitX=1;exitY=0.25;exitDx=0;exitDy=0;entryX=0;entryY=0.25;entryDx=0;entryDy=0;labelBackgroundColor=default;strokeColor=#7EA6E0;strokeWidth=3;fontFamily=Helvetica;fontSize=11;fontColor=default;endArrow=none;endFill=0;" parent="1" source="VjrMN6myHZ9YJszXmR57-53" target="VjrMN6myHZ9YJszXmR57-59" edge="1">
          <mxGeometry relative="1" as="geometry" />
        </mxCell>
        <mxCell id="VjrMN6myHZ9YJszXmR57-53" value="" style="rounded=0;whiteSpace=wrap;html=1;fillColor=#7EA6E0;strokeColor=#7EA6E0;movable=1;resizable=1;rotatable=1;deletable=1;editable=1;locked=0;connectable=1;rotation=60;" parent="1" vertex="1">
          <mxGeometry x="361" y="727" width="60" height="28.5" as="geometry" />
        </mxCell>
        <mxCell id="VjrMN6myHZ9YJszXmR57-54" style="edgeStyle=none;shape=connector;rounded=0;orthogonalLoop=1;jettySize=auto;html=1;exitX=0;exitY=0.25;exitDx=0;exitDy=0;entryX=1;entryY=0.25;entryDx=0;entryDy=0;labelBackgroundColor=default;strokeColor=#7EA6E0;strokeWidth=3;fontFamily=Helvetica;fontSize=11;fontColor=default;endArrow=none;endFill=0;" parent="1" source="VjrMN6myHZ9YJszXmR57-55" target="VjrMN6myHZ9YJszXmR57-59" edge="1">
          <mxGeometry relative="1" as="geometry" />
        </mxCell>
        <mxCell id="VjrMN6myHZ9YJszXmR57-55" value="" style="rounded=0;whiteSpace=wrap;html=1;fillColor=#7EA6E0;strokeColor=#7EA6E0;movable=1;resizable=1;rotatable=1;deletable=1;editable=1;locked=0;connectable=1;rotation=-60;" parent="1" vertex="1">
          <mxGeometry x="521" y="727" width="60" height="28.5" as="geometry" />
        </mxCell>
        <mxCell id="VjrMN6myHZ9YJszXmR57-56" style="rounded=0;orthogonalLoop=1;jettySize=auto;html=1;exitX=0;exitY=0.75;exitDx=0;exitDy=0;entryX=1;entryY=0.75;entryDx=0;entryDy=0;strokeColor=#7EA6E0;strokeWidth=3;endArrow=none;endFill=0;" parent="1" source="VjrMN6myHZ9YJszXmR57-58" target="VjrMN6myHZ9YJszXmR57-63" edge="1">
          <mxGeometry relative="1" as="geometry" />
        </mxCell>
        <mxCell id="VjrMN6myHZ9YJszXmR57-57" style="edgeStyle=none;shape=connector;rounded=0;orthogonalLoop=1;jettySize=auto;html=1;exitX=1;exitY=0.75;exitDx=0;exitDy=0;entryX=0;entryY=0.75;entryDx=0;entryDy=0;labelBackgroundColor=default;strokeColor=#7EA6E0;strokeWidth=3;fontFamily=Helvetica;fontSize=11;fontColor=default;endArrow=none;endFill=0;" parent="1" source="VjrMN6myHZ9YJszXmR57-58" target="VjrMN6myHZ9YJszXmR57-50" edge="1">
          <mxGeometry relative="1" as="geometry" />
        </mxCell>
        <mxCell id="VjrMN6myHZ9YJszXmR57-58" value="" style="rounded=0;whiteSpace=wrap;html=1;fillColor=#7EA6E0;strokeColor=#7EA6E0;movable=1;resizable=1;rotatable=1;deletable=1;editable=1;locked=0;connectable=1;rotation=0;" parent="1" vertex="1">
          <mxGeometry x="441" y="584" width="60" height="28.5" as="geometry" />
        </mxCell>
        <mxCell id="VjrMN6myHZ9YJszXmR57-59" value="" style="rounded=0;whiteSpace=wrap;html=1;fillColor=#7EA6E0;strokeColor=#7EA6E0;movable=1;resizable=1;rotatable=1;deletable=1;editable=1;locked=0;connectable=1;rotation=0;" parent="1" vertex="1">
          <mxGeometry x="441" y="777" width="60" height="28.5" as="geometry" />
        </mxCell>
        <mxCell id="VjrMN6myHZ9YJszXmR57-60" style="edgeStyle=none;shape=connector;rounded=0;orthogonalLoop=1;jettySize=auto;html=1;exitX=0;exitY=0.75;exitDx=0;exitDy=0;entryX=0;entryY=0.25;entryDx=0;entryDy=0;labelBackgroundColor=default;strokeColor=#7EA6E0;strokeWidth=3;fontFamily=Helvetica;fontSize=11;fontColor=default;endArrow=none;endFill=0;" parent="1" source="VjrMN6myHZ9YJszXmR57-63" target="VjrMN6myHZ9YJszXmR57-53" edge="1">
          <mxGeometry relative="1" as="geometry" />
        </mxCell>
        <mxCell id="VjrMN6myHZ9YJszXmR57-63" value="" style="rounded=0;whiteSpace=wrap;html=1;fillColor=#7EA6E0;strokeColor=#7EA6E0;movable=1;resizable=1;rotatable=1;deletable=1;editable=1;locked=0;connectable=1;rotation=-60;" parent="1" vertex="1">
          <mxGeometry x="361" y="634" width="60" height="28.5" as="geometry" />
        </mxCell>
        <mxCell id="VjrMN6myHZ9YJszXmR57-64" style="edgeStyle=none;shape=connector;rounded=0;orthogonalLoop=1;jettySize=auto;html=1;exitX=1;exitY=0.75;exitDx=0;exitDy=0;entryX=1;entryY=0.25;entryDx=0;entryDy=0;labelBackgroundColor=default;strokeColor=#7EA6E0;strokeWidth=3;fontFamily=Helvetica;fontSize=11;fontColor=default;endArrow=none;endFill=0;" parent="1" source="VjrMN6myHZ9YJszXmR57-65" target="VjrMN6myHZ9YJszXmR57-68" edge="1">
          <mxGeometry relative="1" as="geometry" />
        </mxCell>
        <mxCell id="VjrMN6myHZ9YJszXmR57-65" value="" style="rounded=0;whiteSpace=wrap;html=1;fillColor=#7EA6E0;strokeColor=#7EA6E0;movable=1;resizable=1;rotatable=1;deletable=1;editable=1;locked=0;connectable=1;rotation=60;" parent="1" vertex="1">
          <mxGeometry x="681" y="726.5" width="60" height="28.5" as="geometry" />
        </mxCell>
        <mxCell id="VjrMN6myHZ9YJszXmR57-66" style="edgeStyle=none;shape=connector;rounded=0;orthogonalLoop=1;jettySize=auto;html=1;exitX=1;exitY=0.25;exitDx=0;exitDy=0;entryX=0;entryY=0.25;entryDx=0;entryDy=0;labelBackgroundColor=default;strokeColor=#7EA6E0;strokeWidth=3;fontFamily=Helvetica;fontSize=11;fontColor=default;endArrow=none;endFill=0;" parent="1" target="VjrMN6myHZ9YJszXmR57-73" edge="1">
          <mxGeometry relative="1" as="geometry">
            <mxPoint x="572.1704310019641" y="856.1682621135333" as="sourcePoint" />
          </mxGeometry>
        </mxCell>
        <mxCell id="VjrMN6myHZ9YJszXmR57-67" style="edgeStyle=none;shape=connector;rounded=0;orthogonalLoop=1;jettySize=auto;html=1;exitX=0;exitY=0.25;exitDx=0;exitDy=0;entryX=1;entryY=0.25;entryDx=0;entryDy=0;labelBackgroundColor=default;strokeColor=#7EA6E0;strokeWidth=3;fontFamily=Helvetica;fontSize=11;fontColor=default;endArrow=none;endFill=0;" parent="1" source="VjrMN6myHZ9YJszXmR57-68" target="VjrMN6myHZ9YJszXmR57-73" edge="1">
          <mxGeometry relative="1" as="geometry" />
        </mxCell>
        <mxCell id="VjrMN6myHZ9YJszXmR57-68" value="" style="rounded=0;whiteSpace=wrap;html=1;fillColor=#7EA6E0;strokeColor=#7EA6E0;movable=1;resizable=1;rotatable=1;deletable=1;editable=1;locked=0;connectable=1;rotation=-60;" parent="1" vertex="1">
          <mxGeometry x="681" y="819.5" width="60" height="28.5" as="geometry" />
        </mxCell>
        <mxCell id="VjrMN6myHZ9YJszXmR57-69" style="rounded=0;orthogonalLoop=1;jettySize=auto;html=1;exitX=0;exitY=0.75;exitDx=0;exitDy=0;entryX=1;entryY=0.75;entryDx=0;entryDy=0;strokeColor=#7EA6E0;strokeWidth=3;endArrow=none;endFill=0;" parent="1" source="VjrMN6myHZ9YJszXmR57-71" target="VjrMN6myHZ9YJszXmR57-74" edge="1">
          <mxGeometry relative="1" as="geometry" />
        </mxCell>
        <mxCell id="VjrMN6myHZ9YJszXmR57-70" style="edgeStyle=none;shape=connector;rounded=0;orthogonalLoop=1;jettySize=auto;html=1;exitX=1;exitY=0.75;exitDx=0;exitDy=0;entryX=0;entryY=0.75;entryDx=0;entryDy=0;labelBackgroundColor=default;strokeColor=#7EA6E0;strokeWidth=3;fontFamily=Helvetica;fontSize=11;fontColor=default;endArrow=none;endFill=0;" parent="1" source="VjrMN6myHZ9YJszXmR57-71" target="VjrMN6myHZ9YJszXmR57-65" edge="1">
          <mxGeometry relative="1" as="geometry" />
        </mxCell>
        <mxCell id="VjrMN6myHZ9YJszXmR57-71" value="" style="rounded=0;whiteSpace=wrap;html=1;fillColor=#7EA6E0;strokeColor=#7EA6E0;movable=1;resizable=1;rotatable=1;deletable=1;editable=1;locked=0;connectable=1;rotation=0;" parent="1" vertex="1">
          <mxGeometry x="601" y="676.5" width="60" height="28.5" as="geometry" />
        </mxCell>
        <mxCell id="VjrMN6myHZ9YJszXmR57-73" value="" style="rounded=0;whiteSpace=wrap;html=1;fillColor=#7EA6E0;strokeColor=#7EA6E0;movable=1;resizable=1;rotatable=1;deletable=1;editable=1;locked=0;connectable=1;rotation=0;" parent="1" vertex="1">
          <mxGeometry x="601" y="869.5" width="60" height="28.5" as="geometry" />
        </mxCell>
        <mxCell id="VjrMN6myHZ9YJszXmR57-74" value="" style="rounded=0;whiteSpace=wrap;html=1;fillColor=#7EA6E0;strokeColor=#7EA6E0;movable=1;resizable=1;rotatable=1;deletable=1;editable=1;locked=0;connectable=1;rotation=-60;" parent="1" vertex="1">
          <mxGeometry x="521" y="726.5" width="60" height="28.5" as="geometry" />
        </mxCell>
        <mxCell id="VjrMN6myHZ9YJszXmR57-75" style="edgeStyle=none;shape=connector;rounded=0;orthogonalLoop=1;jettySize=auto;html=1;exitX=1;exitY=0.75;exitDx=0;exitDy=0;entryX=1;entryY=0.25;entryDx=0;entryDy=0;labelBackgroundColor=default;strokeColor=#7EA6E0;strokeWidth=3;fontFamily=Helvetica;fontSize=11;fontColor=default;endArrow=none;endFill=0;" parent="1" source="VjrMN6myHZ9YJszXmR57-53" target="VjrMN6myHZ9YJszXmR57-77" edge="1">
          <mxGeometry relative="1" as="geometry">
            <mxPoint x="400" y="778.5" as="sourcePoint" />
          </mxGeometry>
        </mxCell>
        <mxCell id="VjrMN6myHZ9YJszXmR57-77" value="" style="rounded=0;whiteSpace=wrap;html=1;fillColor=#7EA6E0;strokeColor=#7EA6E0;movable=1;resizable=1;rotatable=1;deletable=1;editable=1;locked=0;connectable=1;rotation=-60;" parent="1" vertex="1">
          <mxGeometry x="361" y="827.5" width="60" height="28.5" as="geometry" />
        </mxCell>
        <mxCell id="VjrMN6myHZ9YJszXmR57-78" style="edgeStyle=none;shape=connector;rounded=0;orthogonalLoop=1;jettySize=auto;html=1;exitX=0;exitY=0.25;exitDx=0;exitDy=0;entryX=0;entryY=0.75;entryDx=0;entryDy=0;labelBackgroundColor=default;strokeColor=#7EA6E0;strokeWidth=3;fontFamily=Helvetica;fontSize=11;fontColor=default;endArrow=none;endFill=0;" parent="1" source="VjrMN6myHZ9YJszXmR57-79" target="VjrMN6myHZ9YJszXmR57-55" edge="1">
          <mxGeometry relative="1" as="geometry" />
        </mxCell>
        <mxCell id="VjrMN6myHZ9YJszXmR57-79" value="" style="rounded=0;whiteSpace=wrap;html=1;fillColor=#7EA6E0;strokeColor=#7EA6E0;movable=1;resizable=1;rotatable=1;deletable=1;editable=1;locked=0;connectable=1;rotation=60;" parent="1" vertex="1">
          <mxGeometry x="521" y="827" width="60" height="28.5" as="geometry" />
        </mxCell>
        <mxCell id="VjrMN6myHZ9YJszXmR57-80" style="rounded=0;orthogonalLoop=1;jettySize=auto;html=1;exitX=0;exitY=0.75;exitDx=0;exitDy=0;entryX=1;entryY=0.75;entryDx=0;entryDy=0;strokeColor=#7EA6E0;strokeWidth=3;endArrow=none;endFill=0;" parent="1" source="VjrMN6myHZ9YJszXmR57-82" target="VjrMN6myHZ9YJszXmR57-84" edge="1">
          <mxGeometry relative="1" as="geometry" />
        </mxCell>
        <mxCell id="VjrMN6myHZ9YJszXmR57-81" style="edgeStyle=none;shape=connector;rounded=0;orthogonalLoop=1;jettySize=auto;html=1;exitX=1;exitY=0.75;exitDx=0;exitDy=0;entryX=0;entryY=0.75;entryDx=0;entryDy=0;labelBackgroundColor=default;strokeColor=#7EA6E0;strokeWidth=3;fontFamily=Helvetica;fontSize=11;fontColor=default;endArrow=none;endFill=0;" parent="1" source="VjrMN6myHZ9YJszXmR57-82" target="VjrMN6myHZ9YJszXmR57-79" edge="1">
          <mxGeometry relative="1" as="geometry" />
        </mxCell>
        <mxCell id="VjrMN6myHZ9YJszXmR57-82" value="" style="rounded=0;whiteSpace=wrap;html=1;fillColor=#7EA6E0;strokeColor=#7EA6E0;movable=1;resizable=1;rotatable=1;deletable=1;editable=1;locked=0;connectable=1;rotation=0;" parent="1" vertex="1">
          <mxGeometry x="441" y="777" width="60" height="28.5" as="geometry" />
        </mxCell>
        <mxCell id="VjrMN6myHZ9YJszXmR57-84" value="" style="rounded=0;whiteSpace=wrap;html=1;fillColor=#7EA6E0;strokeColor=#7EA6E0;movable=1;resizable=1;rotatable=1;deletable=1;editable=1;locked=0;connectable=1;rotation=-60;" parent="1" vertex="1">
          <mxGeometry x="361" y="827" width="60" height="28.5" as="geometry" />
        </mxCell>
        <mxCell id="VjrMN6myHZ9YJszXmR57-85" value="" style="rounded=0;whiteSpace=wrap;html=1;fillColor=#7EA6E0;strokeColor=#7EA6E0;movable=1;resizable=1;rotatable=1;deletable=1;editable=1;locked=0;connectable=1;rotation=-60;" parent="1" vertex="1">
          <mxGeometry x="521" y="534" width="60" height="28.5" as="geometry" />
        </mxCell>
        <mxCell id="VjrMN6myHZ9YJszXmR57-86" style="edgeStyle=none;shape=connector;rounded=0;orthogonalLoop=1;jettySize=auto;html=1;exitX=1;exitY=0.75;exitDx=0;exitDy=0;entryX=1;entryY=0.25;entryDx=0;entryDy=0;labelBackgroundColor=default;strokeColor=#7EA6E0;strokeWidth=3;fontFamily=Helvetica;fontSize=11;fontColor=default;endArrow=none;endFill=0;" parent="1" source="VjrMN6myHZ9YJszXmR57-88" target="VjrMN6myHZ9YJszXmR57-93" edge="1">
          <mxGeometry relative="1" as="geometry" />
        </mxCell>
        <mxCell id="VjrMN6myHZ9YJszXmR57-88" value="" style="rounded=0;whiteSpace=wrap;html=1;fillColor=#7EA6E0;strokeColor=#7EA6E0;movable=1;resizable=1;rotatable=1;deletable=1;editable=1;locked=0;connectable=1;rotation=60;" parent="1" vertex="1">
          <mxGeometry x="681" y="533.5" width="60" height="28.5" as="geometry" />
        </mxCell>
        <mxCell id="VjrMN6myHZ9YJszXmR57-89" style="edgeStyle=none;shape=connector;rounded=0;orthogonalLoop=1;jettySize=auto;html=1;exitX=1;exitY=0.25;exitDx=0;exitDy=0;entryX=0;entryY=0.25;entryDx=0;entryDy=0;labelBackgroundColor=default;strokeColor=#7EA6E0;strokeWidth=3;fontFamily=Helvetica;fontSize=11;fontColor=default;endArrow=none;endFill=0;" parent="1" target="VjrMN6myHZ9YJszXmR57-98" edge="1">
          <mxGeometry relative="1" as="geometry">
            <mxPoint x="572.1704310019641" y="663.1682621135332" as="sourcePoint" />
          </mxGeometry>
        </mxCell>
        <mxCell id="VjrMN6myHZ9YJszXmR57-90" style="edgeStyle=none;shape=connector;rounded=0;orthogonalLoop=1;jettySize=auto;html=1;exitX=0;exitY=0.25;exitDx=0;exitDy=0;entryX=1;entryY=0.25;entryDx=0;entryDy=0;labelBackgroundColor=default;strokeColor=#7EA6E0;strokeWidth=3;fontFamily=Helvetica;fontSize=11;fontColor=default;endArrow=none;endFill=0;" parent="1" source="VjrMN6myHZ9YJszXmR57-93" target="VjrMN6myHZ9YJszXmR57-98" edge="1">
          <mxGeometry relative="1" as="geometry" />
        </mxCell>
        <mxCell id="VjrMN6myHZ9YJszXmR57-91" style="edgeStyle=none;shape=connector;rounded=0;orthogonalLoop=1;jettySize=auto;html=1;exitX=0;exitY=0.75;exitDx=0;exitDy=0;entryX=0;entryY=0.25;entryDx=0;entryDy=0;labelBackgroundColor=default;strokeColor=#7EA6E0;strokeWidth=3;fontFamily=Helvetica;fontSize=11;fontColor=default;endArrow=none;endFill=0;" parent="1" source="VjrMN6myHZ9YJszXmR57-93" target="VjrMN6myHZ9YJszXmR57-65" edge="1">
          <mxGeometry relative="1" as="geometry" />
        </mxCell>
        <mxCell id="VjrMN6myHZ9YJszXmR57-93" value="" style="rounded=0;whiteSpace=wrap;html=1;fillColor=#7EA6E0;strokeColor=#7EA6E0;movable=1;resizable=1;rotatable=1;deletable=1;editable=1;locked=0;connectable=1;rotation=-60;" parent="1" vertex="1">
          <mxGeometry x="681" y="626.5" width="60" height="28.5" as="geometry" />
        </mxCell>
        <mxCell id="VjrMN6myHZ9YJszXmR57-94" style="rounded=0;orthogonalLoop=1;jettySize=auto;html=1;exitX=0;exitY=0.75;exitDx=0;exitDy=0;entryX=1;entryY=0.75;entryDx=0;entryDy=0;strokeColor=#7EA6E0;strokeWidth=3;endArrow=none;endFill=0;" parent="1" source="VjrMN6myHZ9YJszXmR57-97" target="VjrMN6myHZ9YJszXmR57-100" edge="1">
          <mxGeometry relative="1" as="geometry" />
        </mxCell>
        <mxCell id="VjrMN6myHZ9YJszXmR57-95" style="edgeStyle=none;shape=connector;rounded=0;orthogonalLoop=1;jettySize=auto;html=1;exitX=1;exitY=0.75;exitDx=0;exitDy=0;entryX=0;entryY=0.75;entryDx=0;entryDy=0;labelBackgroundColor=default;strokeColor=#7EA6E0;strokeWidth=3;fontFamily=Helvetica;fontSize=11;fontColor=default;endArrow=none;endFill=0;" parent="1" source="VjrMN6myHZ9YJszXmR57-97" target="VjrMN6myHZ9YJszXmR57-88" edge="1">
          <mxGeometry relative="1" as="geometry" />
        </mxCell>
        <mxCell id="VjrMN6myHZ9YJszXmR57-97" value="" style="rounded=0;whiteSpace=wrap;html=1;fillColor=#7EA6E0;strokeColor=#7EA6E0;movable=1;resizable=1;rotatable=1;deletable=1;editable=1;locked=0;connectable=1;rotation=0;" parent="1" vertex="1">
          <mxGeometry x="601" y="483.5" width="60" height="28.5" as="geometry" />
        </mxCell>
        <mxCell id="VjrMN6myHZ9YJszXmR57-98" value="" style="rounded=0;whiteSpace=wrap;html=1;fillColor=#7EA6E0;strokeColor=#7EA6E0;movable=1;resizable=1;rotatable=1;deletable=1;editable=1;locked=0;connectable=1;rotation=0;" parent="1" vertex="1">
          <mxGeometry x="601" y="676.5" width="60" height="28.5" as="geometry" />
        </mxCell>
        <mxCell id="VjrMN6myHZ9YJszXmR57-99" style="edgeStyle=none;shape=connector;rounded=0;orthogonalLoop=1;jettySize=auto;html=1;exitX=0;exitY=0.75;exitDx=0;exitDy=0;entryX=0;entryY=0.25;entryDx=0;entryDy=0;labelBackgroundColor=default;strokeColor=#7EA6E0;strokeWidth=3;fontFamily=Helvetica;fontSize=11;fontColor=default;endArrow=none;endFill=0;" parent="1" source="VjrMN6myHZ9YJszXmR57-100" target="VjrMN6myHZ9YJszXmR57-50" edge="1">
          <mxGeometry relative="1" as="geometry">
            <mxPoint x="542.1704310019642" y="611.2067378864668" as="targetPoint" />
          </mxGeometry>
        </mxCell>
        <mxCell id="VjrMN6myHZ9YJszXmR57-100" value="" style="rounded=0;whiteSpace=wrap;html=1;fillColor=#7EA6E0;strokeColor=#7EA6E0;movable=1;resizable=1;rotatable=1;deletable=1;editable=1;locked=0;connectable=1;rotation=-60;" parent="1" vertex="1">
          <mxGeometry x="521" y="533.5" width="60" height="28.5" as="geometry" />
        </mxCell>
        <mxCell id="VjrMN6myHZ9YJszXmR57-136" style="edgeStyle=none;shape=connector;rounded=0;orthogonalLoop=1;jettySize=auto;html=1;exitX=1;exitY=0.75;exitDx=0;exitDy=0;entryX=1;entryY=0.25;entryDx=0;entryDy=0;labelBackgroundColor=default;strokeColor=#7EA6E0;strokeWidth=3;fontFamily=Helvetica;fontSize=11;fontColor=default;endArrow=none;endFill=0;" parent="1" source="VjrMN6myHZ9YJszXmR57-137" edge="1">
          <mxGeometry relative="1" as="geometry">
            <mxPoint x="400" y="618.5" as="targetPoint" />
          </mxGeometry>
        </mxCell>
        <mxCell id="VjrMN6myHZ9YJszXmR57-137" value="" style="rounded=0;whiteSpace=wrap;html=1;fillColor=#7EA6E0;strokeColor=#7EA6E0;movable=1;resizable=1;rotatable=1;deletable=1;editable=1;locked=0;connectable=1;rotation=60;" parent="1" vertex="1">
          <mxGeometry x="361" y="540.5" width="60" height="28.5" as="geometry" />
        </mxCell>
        <mxCell id="VjrMN6myHZ9YJszXmR57-138" value="" style="rounded=0;whiteSpace=wrap;html=1;fillColor=#7EA6E0;strokeColor=#7EA6E0;movable=1;resizable=1;rotatable=1;deletable=1;editable=1;locked=0;connectable=1;rotation=0;" parent="1" vertex="1">
          <mxGeometry x="441" y="583" width="60" height="28.5" as="geometry" />
        </mxCell>
        <mxCell id="VjrMN6myHZ9YJszXmR57-142" style="edgeStyle=none;shape=connector;rounded=0;orthogonalLoop=1;jettySize=auto;html=1;exitX=1;exitY=0.25;exitDx=0;exitDy=0;entryX=0;entryY=0.25;entryDx=0;entryDy=0;labelBackgroundColor=default;strokeColor=#7EA6E0;strokeWidth=3;fontFamily=Helvetica;fontSize=11;fontColor=default;endArrow=none;endFill=0;" parent="1" target="VjrMN6myHZ9YJszXmR57-149" edge="1">
          <mxGeometry relative="1" as="geometry">
            <mxPoint x="412.17043100196406" y="569.6682621135332" as="sourcePoint" />
          </mxGeometry>
        </mxCell>
        <mxCell id="VjrMN6myHZ9YJszXmR57-143" style="edgeStyle=none;shape=connector;rounded=0;orthogonalLoop=1;jettySize=auto;html=1;exitX=0;exitY=0.25;exitDx=0;exitDy=0;entryX=1;entryY=0.25;entryDx=0;entryDy=0;labelBackgroundColor=default;strokeColor=#7EA6E0;strokeWidth=3;fontFamily=Helvetica;fontSize=11;fontColor=default;endArrow=none;endFill=0;" parent="1" source="VjrMN6myHZ9YJszXmR57-145" target="VjrMN6myHZ9YJszXmR57-149" edge="1">
          <mxGeometry relative="1" as="geometry" />
        </mxCell>
        <mxCell id="VjrMN6myHZ9YJszXmR57-144" style="edgeStyle=none;shape=connector;rounded=0;orthogonalLoop=1;jettySize=auto;html=1;exitX=0;exitY=0.75;exitDx=0;exitDy=0;entryX=0;entryY=0.25;entryDx=0;entryDy=0;labelBackgroundColor=default;strokeColor=#7EA6E0;strokeWidth=3;fontFamily=Helvetica;fontSize=11;fontColor=default;endArrow=none;endFill=0;" parent="1" source="VjrMN6myHZ9YJszXmR57-145" edge="1">
          <mxGeometry relative="1" as="geometry">
            <mxPoint x="542" y="617.5" as="targetPoint" />
          </mxGeometry>
        </mxCell>
        <mxCell id="VjrMN6myHZ9YJszXmR57-145" value="" style="rounded=0;whiteSpace=wrap;html=1;fillColor=#7EA6E0;strokeColor=#7EA6E0;movable=1;resizable=1;rotatable=1;deletable=1;editable=1;locked=0;connectable=1;rotation=-60;" parent="1" vertex="1">
          <mxGeometry x="521" y="533" width="60" height="28.5" as="geometry" />
        </mxCell>
        <mxCell id="VjrMN6myHZ9YJszXmR57-146" style="rounded=0;orthogonalLoop=1;jettySize=auto;html=1;exitX=0;exitY=0.75;exitDx=0;exitDy=0;entryX=1;entryY=0.75;entryDx=0;entryDy=0;strokeColor=#7EA6E0;strokeWidth=3;endArrow=none;endFill=0;" parent="1" source="VjrMN6myHZ9YJszXmR57-148" edge="1">
          <mxGeometry relative="1" as="geometry">
            <mxPoint x="412.17043100196406" y="431.83173788646695" as="targetPoint" />
          </mxGeometry>
        </mxCell>
        <mxCell id="VjrMN6myHZ9YJszXmR57-147" style="edgeStyle=none;shape=connector;rounded=0;orthogonalLoop=1;jettySize=auto;html=1;exitX=1;exitY=0.75;exitDx=0;exitDy=0;entryX=0;entryY=0.75;entryDx=0;entryDy=0;labelBackgroundColor=default;strokeColor=#7EA6E0;strokeWidth=3;fontFamily=Helvetica;fontSize=11;fontColor=default;endArrow=none;endFill=0;" parent="1" target="VjrMN6myHZ9YJszXmR57-141" edge="1">
          <mxGeometry relative="1" as="geometry">
            <mxPoint x="501" y="411.375" as="sourcePoint" />
          </mxGeometry>
        </mxCell>
        <mxCell id="VjrMN6myHZ9YJszXmR57-149" value="" style="rounded=0;whiteSpace=wrap;html=1;fillColor=#7EA6E0;strokeColor=#7EA6E0;movable=1;resizable=1;rotatable=1;deletable=1;editable=1;locked=0;connectable=1;rotation=0;" parent="1" vertex="1">
          <mxGeometry x="441" y="583" width="60" height="28.5" as="geometry" />
        </mxCell>
        <mxCell id="VjrMN6myHZ9YJszXmR57-152" style="edgeStyle=none;shape=connector;rounded=0;orthogonalLoop=1;jettySize=auto;html=1;exitX=1;exitY=0.75;exitDx=0;exitDy=0;entryX=1;entryY=0.25;entryDx=0;entryDy=0;labelBackgroundColor=default;strokeColor=#7EA6E0;strokeWidth=3;fontFamily=Helvetica;fontSize=11;fontColor=default;endArrow=none;endFill=0;" parent="1" source="VjrMN6myHZ9YJszXmR57-153" edge="1">
          <mxGeometry relative="1" as="geometry">
            <mxPoint x="240" y="718.5" as="targetPoint" />
          </mxGeometry>
        </mxCell>
        <mxCell id="VjrMN6myHZ9YJszXmR57-153" value="" style="rounded=0;whiteSpace=wrap;html=1;fillColor=#7EA6E0;strokeColor=#7EA6E0;movable=1;resizable=1;rotatable=1;deletable=1;editable=1;locked=0;connectable=1;rotation=60;" parent="1" vertex="1">
          <mxGeometry x="201" y="640.5" width="60" height="28.5" as="geometry" />
        </mxCell>
        <mxCell id="VjrMN6myHZ9YJszXmR57-154" value="" style="rounded=0;whiteSpace=wrap;html=1;fillColor=#7EA6E0;strokeColor=#7EA6E0;movable=1;resizable=1;rotatable=1;deletable=1;editable=1;locked=0;connectable=1;rotation=0;" parent="1" vertex="1">
          <mxGeometry x="281" y="683" width="60" height="28.5" as="geometry" />
        </mxCell>
        <mxCell id="VjrMN6myHZ9YJszXmR57-155" value="" style="rounded=0;whiteSpace=wrap;html=1;fillColor=#7EA6E0;strokeColor=#7EA6E0;movable=1;resizable=1;rotatable=1;deletable=1;editable=1;locked=0;connectable=1;rotation=-60;" parent="1" vertex="1">
          <mxGeometry x="201" y="540.5" width="60" height="28.5" as="geometry" />
        </mxCell>
        <mxCell id="VjrMN6myHZ9YJszXmR57-156" style="edgeStyle=none;shape=connector;rounded=0;orthogonalLoop=1;jettySize=auto;html=1;exitX=1;exitY=0.75;exitDx=0;exitDy=0;entryX=1;entryY=0.25;entryDx=0;entryDy=0;labelBackgroundColor=default;strokeColor=#7EA6E0;strokeWidth=3;fontFamily=Helvetica;fontSize=11;fontColor=default;endArrow=none;endFill=0;" parent="1" source="VjrMN6myHZ9YJszXmR57-157" target="VjrMN6myHZ9YJszXmR57-161" edge="1">
          <mxGeometry relative="1" as="geometry" />
        </mxCell>
        <mxCell id="VjrMN6myHZ9YJszXmR57-157" value="" style="rounded=0;whiteSpace=wrap;html=1;fillColor=#7EA6E0;strokeColor=#7EA6E0;movable=1;resizable=1;rotatable=1;deletable=1;editable=1;locked=0;connectable=1;rotation=60;" parent="1" vertex="1">
          <mxGeometry x="361" y="540" width="60" height="28.5" as="geometry" />
        </mxCell>
        <mxCell id="VjrMN6myHZ9YJszXmR57-158" style="edgeStyle=none;shape=connector;rounded=0;orthogonalLoop=1;jettySize=auto;html=1;exitX=1;exitY=0.25;exitDx=0;exitDy=0;entryX=0;entryY=0.25;entryDx=0;entryDy=0;labelBackgroundColor=default;strokeColor=#7EA6E0;strokeWidth=3;fontFamily=Helvetica;fontSize=11;fontColor=default;endArrow=none;endFill=0;" parent="1" target="VjrMN6myHZ9YJszXmR57-165" edge="1">
          <mxGeometry relative="1" as="geometry">
            <mxPoint x="252.17043100196406" y="669.6682621135332" as="sourcePoint" />
          </mxGeometry>
        </mxCell>
        <mxCell id="VjrMN6myHZ9YJszXmR57-159" style="edgeStyle=none;shape=connector;rounded=0;orthogonalLoop=1;jettySize=auto;html=1;exitX=0;exitY=0.25;exitDx=0;exitDy=0;entryX=1;entryY=0.25;entryDx=0;entryDy=0;labelBackgroundColor=default;strokeColor=#7EA6E0;strokeWidth=3;fontFamily=Helvetica;fontSize=11;fontColor=default;endArrow=none;endFill=0;" parent="1" source="VjrMN6myHZ9YJszXmR57-161" target="VjrMN6myHZ9YJszXmR57-165" edge="1">
          <mxGeometry relative="1" as="geometry" />
        </mxCell>
        <mxCell id="VjrMN6myHZ9YJszXmR57-160" style="edgeStyle=none;shape=connector;rounded=0;orthogonalLoop=1;jettySize=auto;html=1;exitX=0;exitY=0.75;exitDx=0;exitDy=0;entryX=0;entryY=0.25;entryDx=0;entryDy=0;labelBackgroundColor=default;strokeColor=#7EA6E0;strokeWidth=3;fontFamily=Helvetica;fontSize=11;fontColor=default;endArrow=none;endFill=0;" parent="1" source="VjrMN6myHZ9YJszXmR57-161" edge="1">
          <mxGeometry relative="1" as="geometry">
            <mxPoint x="382" y="717.5" as="targetPoint" />
          </mxGeometry>
        </mxCell>
        <mxCell id="VjrMN6myHZ9YJszXmR57-161" value="" style="rounded=0;whiteSpace=wrap;html=1;fillColor=#7EA6E0;strokeColor=#7EA6E0;movable=1;resizable=1;rotatable=1;deletable=1;editable=1;locked=0;connectable=1;rotation=-60;" parent="1" vertex="1">
          <mxGeometry x="361" y="633" width="60" height="28.5" as="geometry" />
        </mxCell>
        <mxCell id="VjrMN6myHZ9YJszXmR57-162" style="rounded=0;orthogonalLoop=1;jettySize=auto;html=1;exitX=0;exitY=0.75;exitDx=0;exitDy=0;entryX=1;entryY=0.75;entryDx=0;entryDy=0;strokeColor=#7EA6E0;strokeWidth=3;endArrow=none;endFill=0;" parent="1" source="VjrMN6myHZ9YJszXmR57-164" target="VjrMN6myHZ9YJszXmR57-167" edge="1">
          <mxGeometry relative="1" as="geometry" />
        </mxCell>
        <mxCell id="VjrMN6myHZ9YJszXmR57-163" style="edgeStyle=none;shape=connector;rounded=0;orthogonalLoop=1;jettySize=auto;html=1;exitX=1;exitY=0.75;exitDx=0;exitDy=0;entryX=0;entryY=0.75;entryDx=0;entryDy=0;labelBackgroundColor=default;strokeColor=#7EA6E0;strokeWidth=3;fontFamily=Helvetica;fontSize=11;fontColor=default;endArrow=none;endFill=0;" parent="1" source="VjrMN6myHZ9YJszXmR57-164" target="VjrMN6myHZ9YJszXmR57-157" edge="1">
          <mxGeometry relative="1" as="geometry" />
        </mxCell>
        <mxCell id="VjrMN6myHZ9YJszXmR57-164" value="" style="rounded=0;whiteSpace=wrap;html=1;fillColor=#7EA6E0;strokeColor=#7EA6E0;movable=1;resizable=1;rotatable=1;deletable=1;editable=1;locked=0;connectable=1;rotation=0;" parent="1" vertex="1">
          <mxGeometry x="281" y="490" width="60" height="28.5" as="geometry" />
        </mxCell>
        <mxCell id="VjrMN6myHZ9YJszXmR57-165" value="" style="rounded=0;whiteSpace=wrap;html=1;fillColor=#7EA6E0;strokeColor=#7EA6E0;movable=1;resizable=1;rotatable=1;deletable=1;editable=1;locked=0;connectable=1;rotation=0;" parent="1" vertex="1">
          <mxGeometry x="281" y="683" width="60" height="28.5" as="geometry" />
        </mxCell>
        <mxCell id="VjrMN6myHZ9YJszXmR57-166" style="edgeStyle=none;shape=connector;rounded=0;orthogonalLoop=1;jettySize=auto;html=1;exitX=0;exitY=0.75;exitDx=0;exitDy=0;entryX=0;entryY=0.25;entryDx=0;entryDy=0;labelBackgroundColor=default;strokeColor=#7EA6E0;strokeWidth=3;fontFamily=Helvetica;fontSize=11;fontColor=default;endArrow=none;endFill=0;" parent="1" source="VjrMN6myHZ9YJszXmR57-167" target="VjrMN6myHZ9YJszXmR57-153" edge="1">
          <mxGeometry relative="1" as="geometry">
            <mxPoint x="222.17043100196418" y="617.7067378864668" as="targetPoint" />
          </mxGeometry>
        </mxCell>
        <mxCell id="VjrMN6myHZ9YJszXmR57-167" value="" style="rounded=0;whiteSpace=wrap;html=1;fillColor=#7EA6E0;strokeColor=#7EA6E0;movable=1;resizable=1;rotatable=1;deletable=1;editable=1;locked=0;connectable=1;rotation=-60;" parent="1" vertex="1">
          <mxGeometry x="201" y="540" width="60" height="28.5" as="geometry" />
        </mxCell>
        <mxCell id="VjrMN6myHZ9YJszXmR57-169" value="" style="rounded=0;whiteSpace=wrap;html=1;fillColor=#7EA6E0;strokeColor=#7EA6E0;movable=1;resizable=1;rotatable=1;deletable=1;editable=1;locked=0;connectable=1;rotation=60;" parent="1" vertex="1">
          <mxGeometry x="201" y="835" width="60" height="28.5" as="geometry" />
        </mxCell>
        <mxCell id="VjrMN6myHZ9YJszXmR57-171" value="" style="rounded=0;whiteSpace=wrap;html=1;fillColor=#7EA6E0;strokeColor=#7EA6E0;movable=1;resizable=1;rotatable=1;deletable=1;editable=1;locked=0;connectable=1;rotation=-60;" parent="1" vertex="1">
          <mxGeometry x="201" y="727" width="60" height="28.5" as="geometry" />
        </mxCell>
        <mxCell id="VjrMN6myHZ9YJszXmR57-172" style="edgeStyle=none;shape=connector;rounded=0;orthogonalLoop=1;jettySize=auto;html=1;exitX=1;exitY=0.75;exitDx=0;exitDy=0;entryX=1;entryY=0.25;entryDx=0;entryDy=0;labelBackgroundColor=default;strokeColor=#7EA6E0;strokeWidth=3;fontFamily=Helvetica;fontSize=11;fontColor=default;endArrow=none;endFill=0;" parent="1" source="VjrMN6myHZ9YJszXmR57-173" target="VjrMN6myHZ9YJszXmR57-177" edge="1">
          <mxGeometry relative="1" as="geometry" />
        </mxCell>
        <mxCell id="VjrMN6myHZ9YJszXmR57-173" value="" style="rounded=0;whiteSpace=wrap;html=1;fillColor=#7EA6E0;strokeColor=#7EA6E0;movable=1;resizable=1;rotatable=1;deletable=1;editable=1;locked=0;connectable=1;rotation=60;" parent="1" vertex="1">
          <mxGeometry x="361" y="726.5" width="60" height="28.5" as="geometry" />
        </mxCell>
        <mxCell id="VjrMN6myHZ9YJszXmR57-175" style="edgeStyle=none;shape=connector;rounded=0;orthogonalLoop=1;jettySize=auto;html=1;exitX=0;exitY=0.25;exitDx=0;exitDy=0;entryX=1;entryY=0.25;entryDx=0;entryDy=0;labelBackgroundColor=default;strokeColor=#7EA6E0;strokeWidth=3;fontFamily=Helvetica;fontSize=11;fontColor=default;endArrow=none;endFill=0;" parent="1" source="VjrMN6myHZ9YJszXmR57-177" target="VjrMN6myHZ9YJszXmR57-181" edge="1">
          <mxGeometry relative="1" as="geometry" />
        </mxCell>
        <mxCell id="VjrMN6myHZ9YJszXmR57-177" value="" style="rounded=0;whiteSpace=wrap;html=1;fillColor=#7EA6E0;strokeColor=#7EA6E0;movable=1;resizable=1;rotatable=1;deletable=1;editable=1;locked=0;connectable=1;rotation=-60;" parent="1" vertex="1">
          <mxGeometry x="361" y="827.5" width="60" height="28.5" as="geometry" />
        </mxCell>
        <mxCell id="VjrMN6myHZ9YJszXmR57-178" style="rounded=0;orthogonalLoop=1;jettySize=auto;html=1;exitX=0;exitY=0.75;exitDx=0;exitDy=0;entryX=1;entryY=0.75;entryDx=0;entryDy=0;strokeColor=#7EA6E0;strokeWidth=3;endArrow=none;endFill=0;" parent="1" source="VjrMN6myHZ9YJszXmR57-165" target="VjrMN6myHZ9YJszXmR57-183" edge="1">
          <mxGeometry relative="1" as="geometry">
            <mxPoint x="281" y="697.875" as="sourcePoint" />
          </mxGeometry>
        </mxCell>
        <mxCell id="VjrMN6myHZ9YJszXmR57-179" style="edgeStyle=none;shape=connector;rounded=0;orthogonalLoop=1;jettySize=auto;html=1;exitX=1;exitY=0.75;exitDx=0;exitDy=0;entryX=0;entryY=0.75;entryDx=0;entryDy=0;labelBackgroundColor=default;strokeColor=#7EA6E0;strokeWidth=3;fontFamily=Helvetica;fontSize=11;fontColor=default;endArrow=none;endFill=0;" parent="1" source="VjrMN6myHZ9YJszXmR57-165" target="VjrMN6myHZ9YJszXmR57-173" edge="1">
          <mxGeometry relative="1" as="geometry">
            <mxPoint x="341" y="697.875" as="sourcePoint" />
          </mxGeometry>
        </mxCell>
        <mxCell id="VjrMN6myHZ9YJszXmR57-184" style="rounded=0;orthogonalLoop=1;jettySize=auto;html=1;exitX=0;exitY=0.25;exitDx=0;exitDy=0;entryX=1;entryY=0.25;entryDx=0;entryDy=0;strokeColor=#7EA6E0;strokeWidth=4;endArrow=none;endFill=0;" parent="1" source="VjrMN6myHZ9YJszXmR57-181" target="VjrMN6myHZ9YJszXmR57-169" edge="1">
          <mxGeometry relative="1" as="geometry" />
        </mxCell>
        <mxCell id="VjrMN6myHZ9YJszXmR57-181" value="" style="rounded=0;whiteSpace=wrap;html=1;fillColor=#7EA6E0;strokeColor=#7EA6E0;movable=1;resizable=1;rotatable=1;deletable=1;editable=1;locked=0;connectable=1;rotation=0;" parent="1" vertex="1">
          <mxGeometry x="281" y="877.5" width="60" height="28.5" as="geometry" />
        </mxCell>
        <mxCell id="VjrMN6myHZ9YJszXmR57-182" style="edgeStyle=none;shape=connector;rounded=0;orthogonalLoop=1;jettySize=auto;html=1;exitX=0;exitY=0.75;exitDx=0;exitDy=0;entryX=0;entryY=0.25;entryDx=0;entryDy=0;labelBackgroundColor=default;strokeColor=#7EA6E0;strokeWidth=3;fontFamily=Helvetica;fontSize=11;fontColor=default;endArrow=none;endFill=0;" parent="1" source="VjrMN6myHZ9YJszXmR57-183" target="VjrMN6myHZ9YJszXmR57-169" edge="1">
          <mxGeometry relative="1" as="geometry">
            <mxPoint x="222.17043100196418" y="804.2067378864668" as="targetPoint" />
          </mxGeometry>
        </mxCell>
        <mxCell id="VjrMN6myHZ9YJszXmR57-183" value="" style="rounded=0;whiteSpace=wrap;html=1;fillColor=#7EA6E0;strokeColor=#7EA6E0;movable=1;resizable=1;rotatable=1;deletable=1;editable=1;locked=0;connectable=1;rotation=-60;" parent="1" vertex="1">
          <mxGeometry x="201" y="726.5" width="60" height="28.5" as="geometry" />
        </mxCell>
      </root>
    </mxGraphModel>
  </diagram>
</mxfile>
